<mxfile host="app.diagrams.net" agent="Mozilla/5.0 (Windows NT 10.0; Win64; x64) AppleWebKit/537.36 (KHTML, like Gecko) Chrome/133.0.0.0 Safari/537.36" version="26.0.16">
  <diagram name="Page-1" id="SpCTchVdMbW-Y5CB9T05">
    <mxGraphModel dx="607" dy="348" grid="1" gridSize="10" guides="1" tooltips="1" connect="1" arrows="1" fold="1" page="1" pageScale="1" pageWidth="850" pageHeight="1100" math="0" shadow="0">
      <root>
        <mxCell id="0" />
        <mxCell id="1" parent="0" />
        <mxCell id="ql6thQfT8PC370-4mqib-1" value="" style="rounded=0;whiteSpace=wrap;html=1;" vertex="1" parent="1">
          <mxGeometry x="200" y="190" width="80" height="100" as="geometry" />
        </mxCell>
        <mxCell id="ql6thQfT8PC370-4mqib-2" value="" style="rounded=0;whiteSpace=wrap;html=1;" vertex="1" parent="1">
          <mxGeometry x="320" y="190" width="80" height="100" as="geometry" />
        </mxCell>
        <mxCell id="ql6thQfT8PC370-4mqib-3" value="home" style="rounded=0;whiteSpace=wrap;html=1;fillColor=#dae8fc;strokeColor=#6c8ebf;" vertex="1" parent="1">
          <mxGeometry x="320" y="240" width="80" height="20" as="geometry" />
        </mxCell>
        <mxCell id="ql6thQfT8PC370-4mqib-4" value="copy" style="rounded=0;whiteSpace=wrap;html=1;fillColor=#dae8fc;strokeColor=#6c8ebf;" vertex="1" parent="1">
          <mxGeometry x="200" y="240" width="80" height="20" as="geometry" />
        </mxCell>
        <mxCell id="ql6thQfT8PC370-4mqib-5" value="" style="endArrow=classic;html=1;rounded=0;exitX=0;exitY=0.5;exitDx=0;exitDy=0;entryX=1;entryY=0.5;entryDx=0;entryDy=0;" edge="1" parent="1" source="ql6thQfT8PC370-4mqib-3" target="ql6thQfT8PC370-4mqib-4">
          <mxGeometry width="50" height="50" relative="1" as="geometry">
            <mxPoint x="250" y="400" as="sourcePoint" />
            <mxPoint x="300" y="350" as="targetPoint" />
          </mxGeometry>
        </mxCell>
        <mxCell id="ql6thQfT8PC370-4mqib-6" value="" style="endArrow=none;dashed=1;html=1;dashPattern=1 3;strokeWidth=1;rounded=0;" edge="1" parent="1">
          <mxGeometry width="50" height="50" relative="1" as="geometry">
            <mxPoint x="240.11" y="226" as="sourcePoint" />
            <mxPoint x="239.86" y="236" as="targetPoint" />
            <Array as="points">
              <mxPoint x="239.86" y="236" />
            </Array>
          </mxGeometry>
        </mxCell>
        <mxCell id="ql6thQfT8PC370-4mqib-7" value="twin" style="rounded=0;whiteSpace=wrap;html=1;fillColor=#dae8fc;strokeColor=#6c8ebf;" vertex="1" parent="1">
          <mxGeometry x="200" y="200" width="80" height="20" as="geometry" />
        </mxCell>
        <mxCell id="ql6thQfT8PC370-4mqib-12" value="" style="shape=curlyBracket;whiteSpace=wrap;html=1;rounded=1;labelPosition=left;verticalLabelPosition=middle;align=right;verticalAlign=middle;" vertex="1" parent="1">
          <mxGeometry x="160" y="200" width="20" height="60" as="geometry" />
        </mxCell>
        <mxCell id="ql6thQfT8PC370-4mqib-13" value="compare" style="text;html=1;align=center;verticalAlign=middle;resizable=0;points=[];autosize=1;strokeColor=none;fillColor=none;" vertex="1" parent="1">
          <mxGeometry x="105" y="201" width="70" height="30" as="geometry" />
        </mxCell>
        <mxCell id="ql6thQfT8PC370-4mqib-16" value="" style="endArrow=classic;html=1;rounded=0;" edge="1" parent="1">
          <mxGeometry width="50" height="50" relative="1" as="geometry">
            <mxPoint x="163" y="230" as="sourcePoint" />
            <mxPoint x="113" y="230" as="targetPoint" />
          </mxGeometry>
        </mxCell>
        <mxCell id="ql6thQfT8PC370-4mqib-19" value="diffs" style="rounded=0;whiteSpace=wrap;html=1;fillColor=#f8cecc;strokeColor=#b85450;" vertex="1" parent="1">
          <mxGeometry x="61" y="219" width="45" height="20" as="geometry" />
        </mxCell>
        <mxCell id="ql6thQfT8PC370-4mqib-20" value="M&lt;sub&gt;0&lt;/sub&gt;" style="text;html=1;align=center;verticalAlign=middle;resizable=0;points=[];autosize=1;strokeColor=none;fillColor=none;" vertex="1" parent="1">
          <mxGeometry x="220" y="160" width="40" height="30" as="geometry" />
        </mxCell>
        <mxCell id="ql6thQfT8PC370-4mqib-21" value="M&lt;sub&gt;1&lt;/sub&gt;" style="text;html=1;align=center;verticalAlign=middle;resizable=0;points=[];autosize=1;strokeColor=none;fillColor=none;" vertex="1" parent="1">
          <mxGeometry x="340" y="160" width="40" height="30" as="geometry" />
        </mxCell>
      </root>
    </mxGraphModel>
  </diagram>
</mxfile>
